<svg width="61" height="61" viewBox="0 0 61 61" fill="none" xmlns="http://www.w3.org/2000/svg">
<path d="M30.5363 0.0894737C30.5012 0.177372 24.1431 18.012 24.1226 18.0794L24.1021 18.1439L26.66 18.1556C29.168 18.1644 29.2237 18.1644 29.4991 18.2288C30.5217 18.4632 31.2542 18.9262 31.7376 19.6528C32.1624 20.2915 32.3324 20.9596 32.3001 21.8503C32.2826 22.3396 32.2445 22.5769 32.1156 23.031C32.0745 23.1805 30.5861 27.3791 28.8076 32.363L25.5759 41.4253L22.3471 41.4341L19.1183 41.44L19.13 41.3755C19.1388 41.3374 20.721 36.8868 22.6489 31.481C24.5797 26.0782 26.156 21.651 26.156 21.6452C26.156 21.6393 25.4118 21.6335 24.5035 21.6335H22.851L22.7749 21.8444C22.7309 21.9616 21.1429 26.4151 19.2443 31.7418L15.7898 41.4253L12.5317 41.4341L9.2736 41.44L9.29118 41.3755C9.29997 41.3374 12.5552 32.196 16.5282 21.0621C20.4983 9.92534 23.7447 0.813175 23.7388 0.807312C23.7212 0.786804 22.35 1.15305 21.7318 1.34056C17.8262 2.52427 14.1491 4.53422 11.0374 7.18583C9.90647 8.14979 8.62608 9.42432 7.67971 10.5289C2.05125 17.1008 -0.45093 25.7149 0.770863 34.3114C1.59711 40.1156 4.08465 45.4775 8.02544 49.9515C8.5792 50.5785 9.99144 51.9849 10.6272 52.5416C13.1265 54.7303 15.8367 56.4296 18.8575 57.7042C19.7277 58.0733 21.096 58.5626 21.9515 58.8117C22.5639 58.9904 23.1235 59.134 23.1411 59.1135C23.1499 59.1018 26.4314 49.8958 30.4338 38.6565C34.4332 27.4172 37.7264 18.1761 37.7469 18.1234L37.785 18.0296H43.1996C46.5192 18.0296 48.7196 18.0413 48.8866 18.0589C50.5743 18.2376 51.8693 19.1283 52.2883 20.4029C52.4905 21.0123 52.4729 21.8005 52.2444 22.571C52.2034 22.7087 50.8116 26.6554 49.1503 31.3463C47.2166 36.8106 46.0797 39.9809 45.986 40.1742C45.4645 41.2466 44.5474 41.9322 43.3139 42.1695C42.7747 42.275 42.2415 42.2897 38.9013 42.2897H35.6637L32.5082 51.144L29.3555 60.0013L29.7101 60.0247C30.384 60.0686 32.0482 60.0159 33.2026 59.9134C40.0821 59.301 46.5368 56.3037 51.4972 51.4165C54.8257 48.1349 57.2224 44.3582 58.7987 39.9076C60.0703 36.3155 60.6475 32.1256 60.4072 28.2405C59.9853 21.4371 57.3952 15.2169 52.8421 10.0631C52.4085 9.57375 50.9405 8.10877 50.4454 7.66928C46.7448 4.39651 42.5521 2.16095 37.8876 0.974323C35.8014 0.44693 33.8413 0.162724 31.6204 0.0689659C30.6242 0.0279465 30.5627 0.0279465 30.5363 0.0894737Z" fill="#1A2229"/>
<path d="M42.9946 21.6979C42.9711 21.7682 41.597 25.627 39.9415 30.2768C38.2832 34.9266 36.9237 38.7532 36.9149 38.7795C36.9032 38.8293 36.994 38.8323 38.5293 38.8323H40.1554L40.1994 38.7063C40.4133 38.0969 46.2908 21.6188 46.3025 21.5983C46.3113 21.5865 45.5788 21.5748 44.6793 21.5748H43.0385L42.9946 21.6979Z" fill="#1A2229"/>
</svg>
